<?xml version="1.0" encoding="UTF-8" standalone="no"?>
<!-- Created with Inkscape (http://www.inkscape.org/) -->

<svg
   width="236.81653"
   height="72.592087"
   viewBox="0 0 62.657703 19.206657"
   version="1.1"
   id="svg8"
   inkscape:version="0.92.4 (5da689c313, 2019-01-14)"
   sodipodi:docname="drawing.svg"
   xmlns:inkscape="http://www.inkscape.org/namespaces/inkscape"
   xmlns:sodipodi="http://sodipodi.sourceforge.net/DTD/sodipodi-0.dtd"
   xmlns="http://www.w3.org/2000/svg"
   xmlns:svg="http://www.w3.org/2000/svg"
   xmlns:rdf="http://www.w3.org/1999/02/22-rdf-syntax-ns#"
   xmlns:cc="http://creativecommons.org/ns#"
   xmlns:dc="http://purl.org/dc/elements/1.1/">
  <defs
     id="defs2" />
  <sodipodi:namedview
     id="base"
     pagecolor="#ffffff"
     bordercolor="#666666"
     borderopacity="1.0"
     inkscape:pageopacity="0.0"
     inkscape:pageshadow="2"
     inkscape:zoom="1.072"
     inkscape:cx="250"
     inkscape:cy="250"
     inkscape:document-units="px"
     inkscape:current-layer="layer1"
     showgrid="true"
     units="px"
     inkscape:window-width="1366"
     inkscape:window-height="705"
     inkscape:window-x="-8"
     inkscape:window-y="-8"
     inkscape:window-maximized="1"
     inkscape:showpageshadow="2"
     inkscape:pagecheckerboard="0"
     inkscape:deskcolor="#d1d1d1" />
  <metadata
     id="metadata5">
    <rdf:RDF>
      <cc:Work
         rdf:about="">
        <dc:format>image/svg+xml</dc:format>
        <dc:type
           rdf:resource="http://purl.org/dc/dcmitype/StillImage" />
        <dc:title />
      </cc:Work>
    </rdf:RDF>
  </metadata>
  <g
     inkscape:label="Layer 1"
     inkscape:groupmode="layer"
     id="layer1"
     transform="translate(-61.719572,-221.25082)">
    <g
       id="g83"
       transform="matrix(1.2096562,0,0,1.2096562,29.357267,-26.605134)"
       inkscape:export-xdpi="96"
       inkscape:export-ydpi="96">
      <g
         id="g67">
        <path
           inkscape:connector-curvature="0"
           id="path16"
           style="font-style:italic;font-variant:normal;font-weight:normal;font-stretch:normal;font-size:10.5833px;line-height:1.25;font-family:'Cooper Black';-inkscape-font-specification:'Cooper Black, Normal';font-variant-ligatures:normal;font-variant-caps:normal;font-variant-numeric:normal;font-feature-settings:normal;text-align:start;letter-spacing:0px;word-spacing:0px;writing-mode:lr-tb;text-anchor:start;fill:#000000;fill-opacity:1;stroke:none;stroke-width:0.264583"
           d="m 30.931894,204.89785 q 0.532267,0 1.338419,0.26355 0.09819,0.031 0.160197,0.031 0.05168,0 0.330729,-0.093 0.08785,-0.031 0.180868,-0.031 0.346232,0 0.620117,0.54777 0.279053,0.54777 0.1757,1.04386 -0.05684,0.28939 -0.268718,0.49093 -0.211873,0.19637 -0.45992,0.19637 -0.206706,0 -0.320394,-0.0827 -0.113688,-0.0827 -0.470255,-0.49093 -0.506429,-0.57877 -1.105876,-0.57877 -0.289388,0 -0.490926,0.13952 -0.19637,0.13953 -0.242879,0.36691 -0.09302,0.44958 0.65629,0.67696 1.002523,0.31522 1.276408,0.45992 1.188558,0.64078 0.940511,1.88619 -0.222208,1.1007 -1.260905,1.79834 -1.059366,0.71313 -2.54248,0.71313 -0.661458,0 -1.364258,-0.15503 -0.702799,-0.1602 -0.98702,-0.37207 -0.217041,-0.16536 -0.304891,-0.7183 -0.08785,-0.55811 0.02067,-1.08521 0.05168,-0.25321 0.180868,-0.3824 0.160196,-0.16537 0.356567,-0.16537 0.19637,0 0.335897,0.20154 0.08785,0.11369 0.366902,0.72864 0.134359,0.28939 0.511597,0.48059 0.377238,0.1912 0.821655,0.1912 0.382406,0 0.645956,-0.13952 0.268717,-0.1447 0.315226,-0.36691 0.04134,-0.2067 -0.118856,-0.35656 -0.155029,-0.14987 -0.54777,-0.27906 -0.692464,-0.23254 -1.043864,-0.42374 -0.346232,-0.19637 -0.620117,-0.49093 -0.671794,-0.72347 -0.490926,-1.64331 0.09302,-0.45475 0.387573,-0.88367 0.299723,-0.43408 0.749308,-0.7493 1.018026,-0.72864 2.268596,-0.72864 z" />
        <path
           inkscape:connector-curvature="0"
           id="path18"
           style="font-style:italic;font-variant:normal;font-weight:normal;font-stretch:normal;font-size:10.5833px;line-height:1.25;font-family:'Cooper Black';-inkscape-font-specification:'Cooper Black, Normal';font-variant-ligatures:normal;font-variant-caps:normal;font-variant-numeric:normal;font-feature-settings:normal;text-align:start;letter-spacing:0px;word-spacing:0px;writing-mode:lr-tb;text-anchor:start;fill:#000000;fill-opacity:1;stroke:none;stroke-width:0.264583"
           d="m 37.412118,205.29576 -0.501261,2.16524 q -0.08785,0.38757 0.160197,0.38757 0.124023,0 0.279052,-0.17053 0.645956,-0.72864 1.483114,-0.72864 0.821655,0 1.209228,0.50126 0.170533,0.22221 0.201539,0.5271 0.03101,0.30489 -0.07235,0.87333 l -0.33073,1.86552 q -0.04134,0.24288 -0.0052,0.35657 0.03617,0.11369 0.222208,0.28422 0.124024,0.11886 0.09302,0.28422 -0.113688,0.55811 -1.79834,0.55811 -1.498616,0 -1.395263,-0.52193 0.02067,-0.0879 0.05168,-0.13436 0.03617,-0.0465 0.232544,-0.24805 0.273885,-0.28422 0.501261,-1.4211 0.139527,-0.6873 0.07235,-1.00252 -0.08785,-0.42892 -0.527099,-0.42892 -0.315227,0 -0.506429,0.22738 -0.144694,0.16536 -0.232544,0.62011 l -0.201538,0.99736 q -0.09819,0.66146 -0.08785,0.74931 0.01033,0.0879 0.170532,0.32556 0.07751,0.10852 0.05168,0.25321 -0.118855,0.58395 -1.638142,0.58395 -1.77767,0 -1.658814,-0.60462 0.03101,-0.13952 0.103353,-0.21187 0.07235,-0.0775 0.325561,-0.23254 0.222209,-0.13953 0.41858,-0.74931 0.19637,-0.61495 0.48059,-2.03089 0.222209,-1.11104 0.248047,-1.53995 0.01034,-0.1602 -0.03101,-0.23255 -0.03617,-0.0775 -0.170532,-0.15503 -0.289388,-0.16536 -0.242879,-0.3824 0.05168,-0.25838 0.325561,-0.41858 0.273886,-0.1602 0.997356,-0.34623 0.981852,-0.25839 1.53479,-0.25839 0.299723,0 0.237711,0.25839 z" />
        <path
           inkscape:connector-curvature="0"
           id="path20"
           style="font-style:italic;font-variant:normal;font-weight:normal;font-stretch:normal;font-size:10.5833px;line-height:1.25;font-family:'Cooper Black';-inkscape-font-specification:'Cooper Black, Normal';font-variant-ligatures:normal;font-variant-caps:normal;font-variant-numeric:normal;font-feature-settings:normal;text-align:start;letter-spacing:0px;word-spacing:0px;writing-mode:lr-tb;text-anchor:start;fill:#000000;fill-opacity:1;stroke:none;stroke-width:0.264583"
           d="m 44.60031,206.94423 q 0.945679,0 1.560628,0.49093 0.444417,0.3514 0.640788,0.91467 0.201538,0.58911 0.07235,1.2299 -0.222209,1.12138 -1.405599,1.90686 -1.131714,0.74931 -2.397786,0.74931 -1.235067,0 -1.860352,-0.7028 -0.609782,-0.68213 -0.387573,-1.77767 0.242879,-1.21956 1.307413,-1.99471 1.111044,-0.81649 2.470134,-0.81649 z m -0.651123,1.19373 q -0.227376,0 -0.397909,0.17053 -0.170532,0.16537 -0.227376,0.44442 -0.06201,0.31006 -0.05168,0.84749 0.01033,0.53227 0.08785,0.94568 0.07751,0.42375 0.439249,0.42375 0.45992,0 0.573609,-0.58395 0.08785,-0.43408 0.08268,-0.98702 -0.0052,-0.55293 -0.103353,-0.89917 -0.09819,-0.35139 -0.403076,-0.36173 z" />
        <path
           inkscape:connector-curvature="0"
           id="path22"
           style="font-style:italic;font-variant:normal;font-weight:normal;font-stretch:normal;font-size:10.5833px;line-height:1.25;font-family:'Cooper Black';-inkscape-font-specification:'Cooper Black, Normal';font-variant-ligatures:normal;font-variant-caps:normal;font-variant-numeric:normal;font-feature-settings:normal;text-align:start;letter-spacing:0px;word-spacing:0px;writing-mode:lr-tb;text-anchor:start;fill:#000000;fill-opacity:1;stroke:none;stroke-width:0.264583"
           d="m 50.295051,206.97524 q 0.315227,0 0.382406,0.0568 0.06718,0.0517 0.02584,0.26872 -0.04134,0.1912 0.08268,0.1912 0.05168,0 0.387573,-0.19637 0.253214,-0.14986 0.614949,-0.24804 0.361735,-0.10336 0.640788,-0.10336 0.656291,0 1.085205,0.45476 0.320394,0.34623 0.434082,0.87333 0.118856,0.55294 -0.0052,1.16272 -0.258382,1.30224 -1.307413,2.14457 -0.806153,0.65629 -1.669149,0.65629 -0.43925,0 -0.862996,-0.2067 -0.08785,-0.0413 -0.144694,-0.0413 -0.15503,0 -0.217041,0.31006 -0.08268,0.40825 0.155029,0.58911 0.222209,0.17054 0.258382,0.22738 0.03617,0.062 0.01034,0.20154 -0.06201,0.31006 -0.444417,0.47542 -0.377238,0.17053 -1.00769,0.17053 -1.121379,0 -1.875855,-0.44958 -0.382405,-0.22738 -0.315226,-0.56327 0.03101,-0.15503 0.108521,-0.23772 0.08268,-0.0775 0.289388,-0.16536 0.289388,-0.12402 0.413411,-0.44959 0.129191,-0.32556 0.465088,-1.87068 0.222209,-1.27124 0.19637,-1.42627 -0.01033,-0.0517 -0.04651,-0.0672 -0.03617,-0.0155 -0.248047,-0.0568 -0.15503,-0.031 -0.237712,-0.14986 -0.07751,-0.12402 -0.04134,-0.29455 0.04134,-0.20671 0.217041,-0.36174 0.1757,-0.16019 0.532267,-0.31006 1.379761,-0.5736 2.123901,-0.58394 z m 0.124024,1.95337 -0.361735,1.4211 q -0.02584,0.0879 -0.04134,0.17053 -0.03101,0.1602 0.08785,0.25839 0.118855,0.0982 0.351399,0.0982 0.713135,0 0.950847,-1.17305 0.149861,-0.75965 -0.08785,-1.06971 -0.149862,-0.1912 -0.408244,-0.1912 -0.366903,0 -0.490926,0.48576 z" />
        <path
           inkscape:connector-curvature="0"
           id="path24"
           style="font-style:italic;font-variant:normal;font-weight:normal;font-stretch:normal;font-size:10.5833px;line-height:1.25;font-family:'Cooper Black';-inkscape-font-specification:'Cooper Black, Normal';font-variant-ligatures:normal;font-variant-caps:normal;font-variant-numeric:normal;font-feature-settings:normal;text-align:start;letter-spacing:0px;word-spacing:0px;writing-mode:lr-tb;text-anchor:start;fill:#000000;fill-opacity:1;stroke:none;stroke-width:0.264583"
           d="m 57.343717,206.97524 q 0.315227,0 0.382406,0.0568 0.06718,0.0517 0.02584,0.26872 -0.04134,0.1912 0.08268,0.1912 0.05168,0 0.387573,-0.19637 0.253214,-0.14986 0.614949,-0.24804 0.361735,-0.10336 0.640788,-0.10336 0.656291,0 1.085205,0.45476 0.320394,0.34623 0.434082,0.87333 0.118856,0.55294 -0.0052,1.16272 -0.258382,1.30224 -1.307413,2.14457 -0.806153,0.65629 -1.669149,0.65629 -0.43925,0 -0.862996,-0.2067 -0.08785,-0.0413 -0.144694,-0.0413 -0.15503,0 -0.217041,0.31006 -0.08268,0.40825 0.155029,0.58911 0.222209,0.17054 0.258382,0.22738 0.03617,0.062 0.01033,0.20154 -0.06201,0.31006 -0.444417,0.47542 -0.377238,0.17053 -1.00769,0.17053 -1.121379,0 -1.875855,-0.44958 -0.382405,-0.22738 -0.315226,-0.56327 0.03101,-0.15503 0.108521,-0.23772 0.08268,-0.0775 0.289388,-0.16536 0.289388,-0.12402 0.413411,-0.44959 0.129191,-0.32556 0.465088,-1.87068 0.222209,-1.27124 0.19637,-1.42627 -0.01034,-0.0517 -0.04651,-0.0672 -0.03617,-0.0155 -0.248047,-0.0568 -0.15503,-0.031 -0.237712,-0.14986 -0.07751,-0.12402 -0.04134,-0.29455 0.04134,-0.20671 0.217041,-0.36174 0.1757,-0.16019 0.532267,-0.31006 1.379761,-0.5736 2.123901,-0.58394 z m 0.124024,1.95337 -0.361735,1.4211 q -0.02584,0.0879 -0.04134,0.17053 -0.03101,0.1602 0.08785,0.25839 0.118855,0.0982 0.351399,0.0982 0.713135,0 0.950847,-1.17305 0.149861,-0.75965 -0.08785,-1.06971 -0.149862,-0.1912 -0.408244,-0.1912 -0.366903,0 -0.490926,0.48576 z" />
        <path
           inkscape:connector-curvature="0"
           id="path26"
           style="font-style:italic;font-variant:normal;font-weight:normal;font-stretch:normal;font-size:10.5833px;line-height:1.25;font-family:'Cooper Black';-inkscape-font-specification:'Cooper Black, Normal';font-variant-ligatures:normal;font-variant-caps:normal;font-variant-numeric:normal;font-feature-settings:normal;text-align:start;letter-spacing:0px;word-spacing:0px;writing-mode:lr-tb;text-anchor:start;fill:#000000;fill-opacity:1;stroke:none;stroke-width:0.264583"
           d="m 64.666269,207.30597 -0.599447,3.0024 q -0.07235,0.35657 -0.04134,0.52193 0.03617,0.16537 0.201538,0.30489 0.139526,0.11369 0.1757,0.19637 0.04134,0.0775 0.0155,0.20154 -0.134359,0.66663 -1.824178,0.66663 -0.909506,0 -1.410767,-0.1447 -0.170532,-0.0517 -0.258382,-0.18086 -0.08268,-0.1292 -0.05168,-0.29456 0.02584,-0.13953 0.09819,-0.21704 0.07235,-0.0775 0.341064,-0.24805 0.186035,-0.11885 0.304891,-0.38757 0.118856,-0.26872 0.227376,-0.80099 0.03617,-0.17053 0.103353,-0.63562 0.07235,-0.47025 0.07751,-0.54777 0.01034,-0.21187 -0.227376,-0.32556 -0.289388,-0.13952 -0.237712,-0.41341 0.06718,-0.32556 0.516764,-0.48576 0.625285,-0.22221 1.317749,-0.37724 0.692465,-0.15502 1.0542,-0.15502 0.28422,0 0.217041,0.32039 z m -0.568441,-2.26343 q 0.449585,0 0.676961,0.17053 0.232544,0.16537 0.1757,0.44959 -0.07752,0.39791 -0.521932,0.63045 -0.707967,0.3669 -1.601969,0.3669 -0.377238,0 -0.568441,-0.14469 -0.26355,-0.18604 -0.196371,-0.51676 0.08785,-0.44442 0.775147,-0.69764 0.697632,-0.25838 1.260905,-0.25838 z" />
        <path
           inkscape:connector-curvature="0"
           id="path28"
           style="font-style:italic;font-variant:normal;font-weight:normal;font-stretch:normal;font-size:10.5833px;line-height:1.25;font-family:'Cooper Black';-inkscape-font-specification:'Cooper Black, Normal';font-variant-ligatures:normal;font-variant-caps:normal;font-variant-numeric:normal;font-feature-settings:normal;text-align:start;letter-spacing:0px;word-spacing:0px;writing-mode:lr-tb;text-anchor:start;fill:#000000;fill-opacity:1;stroke:none;stroke-width:0.264583"
           d="m 71.534066,208.85626 -0.289388,1.81901 q -0.03101,0.20671 0,0.30489 0.03617,0.0982 0.248047,0.37724 0.05684,0.0827 0.03101,0.23255 -0.07235,0.34106 -0.506429,0.47542 -0.434082,0.13436 -1.483114,0.13436 -0.713134,0 -0.981852,-0.12403 -0.279052,-0.12919 -0.222208,-0.41858 0.02067,-0.10335 0.06201,-0.14986 0.04134,-0.0517 0.253215,-0.24288 0.253214,-0.21704 0.496094,-1.44694 0.144694,-0.71313 0.04651,-1.0542 -0.07751,-0.27388 -0.439249,-0.27388 -0.346232,0 -0.521932,0.22221 -0.1757,0.22221 -0.289388,0.80615 l -0.206706,1.02319 q -0.06201,0.30489 -0.04651,0.41858 0.02067,0.11369 0.170532,0.43925 0.03617,0.093 0.0155,0.21188 -0.06201,0.30489 -0.516764,0.44958 -0.449585,0.1447 -1.348755,0.1447 -1.436605,0 -1.317749,-0.59428 0.02584,-0.12403 0.08268,-0.18604 0.05684,-0.0672 0.242879,-0.18603 0.155029,-0.0982 0.217041,-0.22221 0.06201,-0.12919 0.191203,-0.62529 0.155029,-0.58911 0.28422,-1.23506 0.07235,-0.35657 0.03617,-0.46509 -0.03101,-0.11369 -0.258382,-0.27389 -0.191203,-0.13952 -0.149861,-0.34106 0.04134,-0.20671 0.248046,-0.3359 0.206706,-0.13436 0.81132,-0.3359 0.5271,-0.1757 1.012858,-0.29455 0.485759,-0.12402 0.656291,-0.12402 0.155029,0 0.237712,0.11368 0.08268,0.11369 0.05168,0.26872 -0.0052,0.0155 -0.03101,0.12919 -0.0155,0.0413 -0.02067,0.0724 -0.04651,0.24805 0.160197,0.24805 0.124023,0 0.299723,-0.19637 0.573608,-0.64079 1.421102,-0.64079 0.651123,0 1.049031,0.34106 0.273885,0.24288 0.335897,0.57361 0.06718,0.32556 -0.03101,0.96118 z" />
        <path
           inkscape:connector-curvature="0"
           id="path30"
           style="font-style:italic;font-variant:normal;font-weight:normal;font-stretch:normal;font-size:10.5833px;line-height:1.25;font-family:'Cooper Black';-inkscape-font-specification:'Cooper Black, Normal';font-variant-ligatures:normal;font-variant-caps:normal;font-variant-numeric:normal;font-feature-settings:normal;text-align:start;letter-spacing:0px;word-spacing:0px;writing-mode:lr-tb;text-anchor:start;fill:#000000;fill-opacity:1;stroke:none;stroke-width:0.264583"
           d="m 78.308845,206.67035 q 0.129191,0 0.196371,0.14986 0.07235,0.14469 0.03101,0.34107 -0.04134,0.21187 -0.227377,0.48059 -0.186035,0.26871 -0.403076,0.42891 -0.139526,0.10335 -0.155029,0.16537 0,0.0155 -0.01033,0.12402 -0.01034,0.10852 -0.02584,0.19637 -0.124023,0.61495 -0.620117,1.03353 -0.444417,0.37207 -1.07487,0.57877 -0.625284,0.20671 -1.328084,0.20671 -0.170532,0 -0.335897,-0.0207 -0.129191,-0.0155 -0.201538,-0.0155 -0.273885,0 -0.330729,0.27388 -0.03101,0.1757 0.124024,0.27905 0.160196,0.0982 0.465087,0.0982 0.206706,0 0.620118,-0.0568 0.873331,-0.11885 1.276407,-0.11885 0.609782,0 0.904338,0.20154 0.237712,0.15503 0.335897,0.43408 0.103353,0.27905 0.04134,0.59945 -0.103353,0.52193 -0.583944,1.01285 -0.573608,0.57878 -1.514119,0.85783 -0.733805,0.21704 -1.643311,0.21704 -1.147216,0 -1.788004,-0.3514 -0.299723,-0.16536 -0.444417,-0.43408 -0.139527,-0.26872 -0.08268,-0.5581 0.04134,-0.20154 0.186035,-0.37207 0.144694,-0.17054 0.33073,-0.24288 0.165364,-0.062 0.180867,-0.13436 0.01033,-0.0568 -0.09819,-0.16537 -0.341065,-0.34623 -0.268718,-0.7183 0.05168,-0.24805 0.299724,-0.5116 0.253214,-0.26355 0.578776,-0.40824 0.134358,-0.062 0.149861,-0.12402 0.01034,-0.0724 -0.113688,-0.21704 -0.434082,-0.49093 -0.304891,-1.14722 0.07235,-0.34623 0.320394,-0.66146 0.253215,-0.31523 0.63562,-0.53743 0.940511,-0.54261 1.953369,-0.54261 0.403076,0 0.8785,0.10336 0.449585,0.093 0.625284,0.093 0.563274,0 1.209229,-0.44441 0.144694,-0.093 0.211873,-0.093 z m -3.017903,1.0697 q -0.258382,0 -0.45992,0.19637 -0.196371,0.19637 -0.258383,0.52193 -0.113688,0.55811 -0.01033,0.89401 0.103353,0.33589 0.382406,0.33589 0.273885,0 0.475423,-0.2067 0.201538,-0.21188 0.273885,-0.56328 0.10852,-0.55293 0,-0.85782 -0.103353,-0.31006 -0.403076,-0.3204 z m -2.067057,4.70256 q -0.129192,0 -0.160197,0.14986 -0.06201,0.30489 0.227376,0.49092 0.294556,0.19121 0.821655,0.19121 0.506429,0 0.821655,-0.13436 0.315227,-0.13436 0.361735,-0.37724 0.02584,-0.12919 -0.06718,-0.22221 -0.08785,-0.0878 -0.248047,-0.0878 -0.08268,0 -0.242879,0.0207 -0.294556,0.0465 -0.651123,0.0465 -0.26355,0 -0.501261,-0.0258 -0.180868,-0.0155 -0.289388,-0.0413 -0.04651,-0.0103 -0.07235,-0.0103 z" />
      </g>
      <g
         transform="translate(0,-4.6894433)"
         id="g57">
        <path
           inkscape:connector-curvature="0"
           id="path32"
           style="font-style:italic;font-variant:normal;font-weight:normal;font-stretch:normal;font-size:10.5833px;line-height:1.25;font-family:'Cooper Black';-inkscape-font-specification:'Cooper Black, Normal';font-variant-ligatures:normal;font-variant-caps:normal;font-variant-numeric:normal;font-feature-settings:normal;text-align:start;letter-spacing:0px;word-spacing:0px;writing-mode:lr-tb;text-anchor:start;fill:#000000;fill-opacity:1;stroke:none;stroke-width:0.264583"
           d="m 31.748381,218.12701 q 0.754476,0 1.390096,0.33073 0.299723,0.15503 0.428914,0.15503 0.09302,0 0.310059,-0.0465 0.06718,-0.0155 0.149862,-0.0155 0.268717,0 0.423746,0.24805 0.372071,0.59944 0.196371,1.48828 -0.124024,0.62528 -0.609782,0.91467 -0.26355,0.15503 -0.552938,0.15503 -0.26355,0 -0.408244,-0.11369 -0.144694,-0.11369 -0.237711,-0.40307 -0.144694,-0.40825 -0.248047,-0.58395 -0.103353,-0.18086 -0.273885,-0.32556 -0.434082,-0.3514 -0.981852,-0.3514 -0.532268,0 -0.919841,0.38757 -0.387573,0.38241 -0.516764,1.02837 -0.180868,0.88883 0.124023,1.6278 0.408244,0.98702 1.545126,0.98702 0.418579,0 0.857828,-0.13952 0.43925,-0.13953 0.713135,-0.36174 0.232544,-0.18603 0.356567,-0.18603 0.180868,0 0.273886,0.17053 0.09819,0.16536 0.05168,0.40308 -0.06201,0.29972 -0.320394,0.67179 -0.253214,0.37207 -0.54777,0.58394 -0.124023,0.0879 -0.480591,0.15503 -0.201538,0.0362 -0.558105,0.1912 -0.837158,0.36691 -1.663981,0.36691 -0.862997,0 -1.643311,-0.38758 -0.909505,-0.44958 -1.302246,-1.37976 -0.387573,-0.90433 -0.191203,-1.89135 0.232544,-1.14722 1.131714,-2.0929 0.785482,-0.82165 1.870687,-1.25574 0.826823,-0.33073 1.632975,-0.33073 z" />
        <path
           inkscape:connector-curvature="0"
           id="path34"
           style="font-style:italic;font-variant:normal;font-weight:normal;font-stretch:normal;font-size:10.5833px;line-height:1.25;font-family:'Cooper Black';-inkscape-font-specification:'Cooper Black, Normal';font-variant-ligatures:normal;font-variant-caps:normal;font-variant-numeric:normal;font-feature-settings:normal;text-align:start;letter-spacing:0px;word-spacing:0px;writing-mode:lr-tb;text-anchor:start;fill:#000000;fill-opacity:1;stroke:none;stroke-width:0.264583"
           d="m 37.965056,220.1734 q 0.89917,0 1.436605,0.45475 0.279052,0.24288 0.346232,0.55811 0.07235,0.31006 -0.03617,0.85783 l -0.165364,0.76998 q -0.160197,0.80098 -0.09302,1.03869 0.03617,0.11369 0.07752,0.1447 0.04651,0.031 0.206706,0.0568 0.160196,0.0258 0.124023,0.21704 -0.05168,0.24805 -0.304891,0.51677 -0.253214,0.26871 -0.604614,0.44958 -0.428915,0.22738 -0.852661,0.22738 -0.542603,0 -0.785482,-0.37207 -0.08268,-0.13436 -0.1757,-0.13436 -0.103353,0 -0.299723,0.12919 -0.589112,0.37724 -1.245402,0.37724 -0.676961,0 -1.038696,-0.28939 -0.237712,-0.1912 -0.335897,-0.49609 -0.09818,-0.31006 -0.03101,-0.64596 0.10852,-0.53743 0.625285,-0.95085 0.806152,-0.65112 2.154907,-0.65629 0.299723,0 0.387573,-0.0568 0.09302,-0.062 0.134359,-0.27905 0.10852,-0.54777 0.04134,-0.79065 -0.06201,-0.24805 -0.320394,-0.24805 -0.155029,0 -0.294556,0.093 -0.139526,0.093 -0.366902,0.34106 -0.594279,0.65629 -1.095541,0.65629 -0.253214,0 -0.382405,-0.14986 -0.129191,-0.14986 -0.08268,-0.39274 0.05168,-0.24805 0.299723,-0.49609 0.248047,-0.24805 0.625285,-0.43409 1.033528,-0.49609 2.051554,-0.49609 z m -0.940511,2.99207 q -0.227376,0 -0.434082,0.18603 -0.206706,0.18604 -0.258382,0.44442 -0.04651,0.24805 0.04134,0.40307 0.08785,0.14987 0.28422,0.14987 0.413412,0 0.552938,-0.69764 0.05684,-0.28422 0.0155,-0.3824 -0.04134,-0.0982 -0.201538,-0.10335 z" />
        <path
           inkscape:connector-curvature="0"
           id="path36"
           style="font-style:italic;font-variant:normal;font-weight:normal;font-stretch:normal;font-size:10.5833px;line-height:1.25;font-family:'Cooper Black';-inkscape-font-specification:'Cooper Black, Normal';font-variant-ligatures:normal;font-variant-caps:normal;font-variant-numeric:normal;font-feature-settings:normal;text-align:start;letter-spacing:0px;word-spacing:0px;writing-mode:lr-tb;text-anchor:start;fill:#000000;fill-opacity:1;stroke:none;stroke-width:0.264583"
           d="m 43.416919,220.20957 q 0.273885,0 0.315227,0.0775 0.04651,0.0775 0.01033,0.49609 -0.02067,0.22738 0.113688,0.22738 0.103353,0 0.227376,-0.14986 0.542603,-0.64596 1.209229,-0.64596 0.470255,0 0.707967,0.30489 0.113688,0.14986 0.160197,0.38758 0.04651,0.23254 0.0052,0.44958 -0.05168,0.24288 -0.217041,0.50126 -0.165364,0.25322 -0.377238,0.41858 -0.39274,0.31523 -0.873331,0.31523 -0.26355,0 -0.423747,-0.093 -0.160197,-0.093 -0.392741,-0.37724 -0.08785,-0.10852 -0.180867,-0.10852 -0.144694,0 -0.222209,0.16537 -0.07235,0.16019 -0.180868,0.68213 -0.155029,0.78031 -0.155029,1.06453 0.0052,0.15503 0.05684,0.21704 0.05684,0.0568 0.253215,0.11886 0.439249,0.13952 0.366902,0.48575 -0.04134,0.21188 -0.222208,0.37208 -0.180868,0.15502 -0.43925,0.2067 -0.516764,0.10335 -1.477946,0.10335 -0.914673,0 -1.35909,-0.16019 -0.392741,-0.1447 -0.320394,-0.50126 0.05168,-0.26872 0.403076,-0.4806 0.170533,-0.0982 0.24288,-0.1757 0.07235,-0.0827 0.124023,-0.2222 0.1757,-0.47026 0.428914,-1.7415 0.04651,-0.23254 0.0155,-0.33073 -0.03101,-0.10335 -0.1757,-0.16536 -0.335896,-0.1447 -0.28422,-0.41858 0.05168,-0.24805 0.341065,-0.42375 0.289388,-0.18087 0.91984,-0.35657 0.842326,-0.23771 1.400431,-0.24288 z" />
        <path
           inkscape:connector-curvature="0"
           id="path38"
           style="font-style:italic;font-variant:normal;font-weight:normal;font-stretch:normal;font-size:10.5833px;line-height:1.25;font-family:'Cooper Black';-inkscape-font-specification:'Cooper Black, Normal';font-variant-ligatures:normal;font-variant-caps:normal;font-variant-numeric:normal;font-feature-settings:normal;text-align:start;letter-spacing:0px;word-spacing:0px;writing-mode:lr-tb;text-anchor:start;fill:#000000;fill-opacity:1;stroke:none;stroke-width:0.264583"
           d="m 49.633594,221.53249 -0.3514,1.74666 q -0.06201,0.31006 0.05168,0.50643 0.113689,0.19637 0.3514,0.19637 0.201538,0 0.568441,-0.18603 0.08785,-0.0465 0.165365,-0.0465 0.124023,0 0.19637,0.14986 0.07235,0.14986 0.04134,0.32556 -0.06718,0.3204 -0.475423,0.61495 -0.857829,0.62529 -1.901693,0.62529 -0.826823,0 -1.235066,-0.46509 -0.408244,-0.47026 -0.258383,-1.23507 l 0.480591,-2.38745 q 0.02067,-0.11885 0,-0.14469 -0.02067,-0.031 -0.139526,-0.031 h -0.53227 q -0.149862,0 -0.186036,-0.0465 -0.031,-0.0517 0.0052,-0.23254 l 0.04651,-0.22738 q 0.03617,-0.15503 0.165364,-0.22737 l 2.666504,-1.48828 q 0.09302,-0.0465 0.222209,-0.0465 h 0.418579 q 0.129191,0 0.160197,0.062 0.03617,0.0568 0,0.23254 l -0.139526,0.69763 q -0.03101,0.15503 0.0052,0.20154 0.04134,0.0465 0.201538,0.0465 h 0.956014 q 0.191203,0 0.232544,0.0724 0.04651,0.0672 0,0.29455 l -0.06201,0.30489 q -0.04651,0.24805 -0.139527,0.34624 -0.09302,0.093 -0.28422,0.093 h -0.935344 q -0.144694,0 -0.206705,0.0517 -0.06201,0.0517 -0.08785,0.19637 z" />
      </g>
    </g>
  </g>
</svg>
