<?xml version="1.0" encoding="UTF-8" standalone="no"?>
<!-- Created with Inkscape (http://www.inkscape.org/) -->

<svg
   width="136.01785"
   height="151.19817"
   viewBox="0 0 35.988055 40.004516"
   version="1.1"
   id="svg8"
   inkscape:version="0.92.4 (5da689c313, 2019-01-14)"
   sodipodi:docname="drawing.svg"
   xmlns:inkscape="http://www.inkscape.org/namespaces/inkscape"
   xmlns:sodipodi="http://sodipodi.sourceforge.net/DTD/sodipodi-0.dtd"
   xmlns="http://www.w3.org/2000/svg"
   xmlns:svg="http://www.w3.org/2000/svg"
   xmlns:rdf="http://www.w3.org/1999/02/22-rdf-syntax-ns#"
   xmlns:cc="http://creativecommons.org/ns#"
   xmlns:dc="http://purl.org/dc/elements/1.1/">
  <defs
     id="defs2" />
  <sodipodi:namedview
     id="base"
     pagecolor="#ffffff"
     bordercolor="#666666"
     borderopacity="1.0"
     inkscape:pageopacity="0.0"
     inkscape:pageshadow="2"
     inkscape:zoom="1.072"
     inkscape:cx="250"
     inkscape:cy="250"
     inkscape:document-units="px"
     inkscape:current-layer="layer1"
     showgrid="true"
     units="px"
     inkscape:window-width="1366"
     inkscape:window-height="705"
     inkscape:window-x="-8"
     inkscape:window-y="-8"
     inkscape:window-maximized="1"
     inkscape:showpageshadow="2"
     inkscape:pagecheckerboard="0"
     inkscape:deskcolor="#d1d1d1" />
  <metadata
     id="metadata5">
    <rdf:RDF>
      <cc:Work
         rdf:about="">
        <dc:format>image/svg+xml</dc:format>
        <dc:type
           rdf:resource="http://purl.org/dc/dcmitype/StillImage" />
        <dc:title />
      </cc:Work>
    </rdf:RDF>
  </metadata>
  <g
     inkscape:label="Layer 1"
     inkscape:groupmode="layer"
     id="layer1"
     transform="translate(-21.742295,-207.89014)">
    <g
       aria-label="SC"
       style="font-style:normal;font-variant:normal;font-weight:normal;font-stretch:normal;font-size:18.1857px;line-height:1.25;font-family:Elephant;-inkscape-font-specification:'Elephant, Normal';font-variant-ligatures:normal;font-variant-caps:normal;font-variant-numeric:normal;font-feature-settings:normal;text-align:start;letter-spacing:0px;word-spacing:0px;writing-mode:lr-tb;text-anchor:start;fill:#000000;fill-opacity:1;stroke:none;stroke-width:0.454645"
       id="text4601"
       transform="matrix(1.0431619,0,0,1.0431619,-29.654343,21.755232)">
      <path
         id="path4610"
         style="font-style:normal;font-variant:normal;font-weight:normal;font-stretch:normal;font-size:18.1857px;font-family:Elephant;-inkscape-font-specification:'Elephant, Normal';font-variant-ligatures:normal;font-variant-caps:normal;font-variant-numeric:normal;font-feature-settings:normal;text-align:start;writing-mode:lr-tb;text-anchor:start;stroke-width:0.454645"
         d="m 73.502812,210.34779 q -3.12794,0 -5.146552,-1.92768 -2.000426,-1.94587 -2.000426,-4.91014 0,-3.03701 1.982241,-4.92832 2.000426,-1.9095 5.146551,-1.9095 1.345741,0 2.327769,0.45464 l 1.927683,1.09114 q 0.545571,0 0.727428,-0.36371 0.181857,-0.3819 0.2546,-1.07296 h 0.363714 v 5.74668 h -0.309157 q -0.800171,-2.21865 -1.145699,-3.00064 -0.327342,-0.78198 -1.109327,-1.50941 -0.781985,-0.72743 -2.000426,-0.72743 -1.582156,0 -2.345955,1.7822 -0.763799,1.7822 -0.763799,4.16452 0,2.56419 0.909285,4.4555 0.92747,1.87313 2.709668,1.87313 1.654898,0 2.655111,-1.20026 1.000213,-1.20026 1.327556,-3.12794 l 0.309157,0.0546 q -0.2546,2.18228 -1.654898,3.61895 -1.400299,1.43667 -4.164524,1.43667 z m -8.782553,-4.10997 q 0,1.80039 -1.527599,2.96427 -1.509412,1.1457 -3.29161,1.1457 -1.56397,0 -3.091568,-0.98203 -1.527598,-1.00021 -1.764012,-1.00021 -0.600128,0 -0.745614,0.45464 -0.145485,0.45464 -0.272785,1.5276 h -0.309157 v -6.51048 h 0.309157 q 0.109114,0.3819 0.363714,1.25482 0.272785,0.87291 0.982027,2.09135 0.727428,1.20026 1.891312,2.00043 1.18207,0.80017 2.727854,0.80017 0.891099,0 1.454856,-0.47283 0.563756,-0.47283 0.563756,-1.12751 0,-0.78199 -0.418271,-1.23663 -0.418271,-0.45464 -1.509412,-0.87291 -1.091142,-0.43646 -2.309583,-0.92748 -1.218442,-0.49101 -2.582369,-1.32755 -1.363927,-0.81836 -1.363927,-3.09157 0,-1.7822 1.43667,-3.01882 1.43667,-1.23663 3.309796,-1.23663 1.036585,0 2.018612,0.49101 l 1.891312,1.05477 q 0.527386,0 0.691057,-0.43645 0.163671,-0.45465 0.163671,-1.10933 h 0.345528 v 4.81921 h -0.327342 q -0.09093,-0.30916 -0.3819,-1.05477 -0.272785,-0.74562 -1.091141,-1.67309 -0.800171,-0.92747 -1.600342,-1.32755 -0.781984,-0.41827 -1.891312,-0.41827 -0.745613,0 -1.382112,0.43645 -0.6365,0.43646 -0.6365,1.09115 0,0.69105 0.472828,1.16388 0.491014,0.45464 1.109328,0.72743 0.636499,0.27278 1.745826,0.69105 1.109328,0.41827 2.291398,0.98203 1.200255,0.54557 1.964055,1.61853 0.763799,1.05477 0.763799,2.50962 z m 1.331224,-27.80199 c -2.758677,0.0573 -5.148234,1.09086 -6.89011,3.1249 -1.689467,1.97283 -2.745971,4.87849 -3.179187,8.6482 -0.439269,0.28062 -0.874109,0.57064 -1.276917,0.89871 -3.549964,2.89144 -4.734407,9.15663 -5.19754,14.69204 -0.463131,5.53542 -0.106721,10.39508 -0.106721,10.39508 l 0.04306,0.58791 h 34.150979 l 0.04306,-0.58791 c 0,0 0.356411,-4.85966 -0.106721,-10.39508 -0.463133,-5.53541 -1.647576,-11.8006 -5.19754,-14.69204 -0.416371,-0.33913 -0.864233,-0.63781 -1.31998,-0.92678 -0.513245,-3.80524 -1.75622,-6.76549 -3.628541,-8.74933 -1.929031,-2.04392 -4.493702,-3.05472 -7.333848,-2.9957 z m 0.02621,1.26756 c 2.53065,-0.0526 4.694608,0.80616 6.386458,2.59878 1.497225,1.58639 2.530842,4.06759 3.087443,7.2084 -5.439942,-2.73184 -12.715835,-2.72184 -18.137091,0.0356 0.473895,-3.13894 1.366979,-5.59233 2.709236,-7.15972 1.513369,-1.7672 3.487556,-2.63177 5.953954,-2.68303 z m 0.42127,8.95153 c 3.367441,-0.003 6.707912,0.80065 9.354073,2.34039 0.08487,0.78862 0.124628,1.63381 0.142296,2.50703 H 57.03817 c 0.01474,-0.86934 0.05058,-1.70957 0.1217,-2.49205 2.639457,-1.54368 5.974046,-2.35208 9.339095,-2.35537 z m 10.668437,3.18106 c 0.117636,0.0883 0.252208,0.16268 0.3651,0.25463 2.928993,2.38565 4.28159,8.39565 4.735078,13.81579 0.410022,4.90063 0.179844,8.81511 0.12919,9.60871 H 50.644223 c -0.05065,-0.79358 -0.282705,-4.70806 0.127318,-9.60871 0.453487,-5.42014 1.806086,-11.43014 4.735078,-13.81579 0.106622,-0.0868 0.233562,-0.15793 0.344505,-0.24153 -0.04651,0.74852 -0.110467,1.47308 -0.110466,2.2861 v 0.63472 h 21.559678 v -0.63472 c 0,-0.81561 -0.07752,-1.54552 -0.132936,-2.2992 z"
         inkscape:connector-curvature="0" />
    </g>
  </g>
</svg>
